<?xml version="1.0" standalone="no"?>
<!DOCTYPE svg PUBLIC "-//W3C//DTD SVG 20010904//EN"
 "http://www.w3.org/TR/2001/REC-SVG-20010904/DTD/svg10.dtd">
<svg version="1.0" xmlns="http://www.w3.org/2000/svg"
 width="260.000000pt" height="260.000000pt" viewBox="0 0 260.000000 260.000000"
 preserveAspectRatio="xMidYMid meet">
<metadata>
Created by potrace 1.14, written by Peter Selinger 2001-2017
</metadata>
<g transform="translate(0.000000,260.000000) scale(0.100000,-0.100000)"
fill="#000000" stroke="none">
<path d="M51 2586 c-53 -29 -50 29 -51 -1284 0 -1329 -3 -1264 55 -1290 20 -9
321 -12 1246 -12 1326 0 1261 -3 1287 55 17 38 17 2452 0 2490 -26 58 39 55
-1290 55 -996 -1 -1227 -3 -1247 -14z m2496 -38 l23 -21 0 -1226 0 -1225 -22
-23 -21 -23 -1226 0 -1225 0 -23 22 -23 21 0 1226 0 1225 22 23 21 23 1226 0
1225 0 23 -22z"/>
<path d="M320 1740 l0 -560 95 0 95 0 0 230 0 230 355 0 355 0 0 85 0 85 -353
2 -352 3 -3 158 -3 157 366 0 365 0 0 85 0 85 -460 0 -460 0 0 -560z"/>
<path d="M1590 2020 l0 -80 -80 0 -80 0 0 -35 0 -35 80 0 80 0 0 -80 0 -80 35
0 35 0 0 80 0 80 80 0 80 0 0 35 0 35 -80 0 -80 0 0 80 0 80 -35 0 -35 0 0
-80z"/>
<path d="M1850 2094 c0 -3 33 -45 74 -93 l74 -87 -55 -65 c-30 -35 -68 -81
-85 -101 l-30 -38 50 0 51 0 62 76 63 75 40 -48 c94 -110 87 -105 140 -101
l49 3 -82 96 c-44 53 -81 100 -81 104 0 4 34 48 76 96 l75 89 -48 0 c-47 1
-50 -1 -108 -65 l-60 -66 -54 65 c-52 65 -54 66 -102 66 -27 0 -49 -3 -49 -6z"/>
<path d="M880 805 l0 -525 85 0 85 0 2 433 3 432 215 -432 214 -433 101 1 100
0 210 428 210 427 3 -428 2 -428 90 0 90 0 0 525 0 525 -142 0 -143 -1 -209
-434 c-115 -239 -211 -433 -213 -431 -3 2 -98 197 -212 433 l-208 428 -142 3
-141 3 0 -526z"/>
<path d="M500 985 l0 -35 80 0 80 0 0 35 0 35 -80 0 -80 0 0 -35z"/>
<path d="M542 788 c-15 -15 -15 -51 0 -66 7 -7 24 -12 38 -12 31 0 50 17 50
45 0 12 -5 26 -12 33 -15 15 -61 15 -76 0z"/>
<path d="M390 615 l0 -35 195 0 195 0 0 35 0 35 -195 0 -195 0 0 -35z"/>
<path d="M546 514 c-9 -8 -16 -24 -16 -34 0 -43 54 -65 84 -34 31 30 9 84 -34
84 -10 0 -26 -7 -34 -16z"/>
</g>
</svg>
